<svg width="64" height="64" viewBox="0 0 64 64" xmlns="http://www.w3.org/2000/svg"><defs><linearGradient id="tada-favicon-gradient" x1="50" y1="8" x2="14" y2="56" gradientUnits="userSpaceOnUse"><stop offset="0" stop-color="#A5E07B"/><stop offset="0.5" stop-color="#7FDD3C"/><stop offset="1" stop-color="#62C51B"/></linearGradient></defs><circle cx="32" cy="32" r="28" fill="url(#tada-favicon-gradient)"/><g transform="translate(12 12) scale(1.6666666667)" style="color:#101114"><path d="M11.9888 3.47685C12.2274 3.47448 12.5476 3.46297 12.7768 3.49247C14.7064 3.59841 16.5603 4.30467 18.0942 5.51884C18.6851 5.99038 19.1247 6.47307 19.5884 7.06669C19.6193 7.10601 19.7359 7.17996 19.7817 7.21708C20.0157 7.32821 20.2665 7.37137 20.5112 7.44462C21.6383 7.78226 22.1788 8.90468 21.6587 10.012C21.5572 10.2281 21.4385 10.4079 21.2876 10.5931C21.1574 10.7567 20.9902 10.8882 20.896 11.0774C20.8836 11.1025 20.8752 11.131 20.8696 11.1604C21.2568 12.0966 21.4722 13.1225 21.4722 14.1985C21.4719 17.5077 18.7892 20.1906 15.48 20.1907H8.50732C5.19808 20.1906 2.51535 17.5077 2.51513 14.1985C2.51514 13.0897 2.74199 12.0334 3.15185 11.0745C3.0932 10.8762 2.92934 10.7657 2.78075 10.5921C2.40855 10.1303 2.1909 9.71932 2.21239 9.09794C2.22653 8.69198 2.42829 8.22991 2.71239 7.96415C3.05998 7.59775 3.43245 7.48982 3.89306 7.35868C4.0135 7.32441 4.17097 7.2849 4.28173 7.23173C4.54145 7.06981 4.66101 6.82614 4.86571 6.62235C4.95674 6.48115 5.5136 5.92563 5.66064 5.80888C7.33902 4.28116 9.7724 3.49872 11.9888 3.47685ZM16.9849 14.6175C16.9116 14.5006 16.7571 14.4653 16.6401 14.5384C16.5488 14.5955 16.4395 14.6827 16.3647 14.7366C16.278 14.799 16.1932 14.8524 16.0991 14.888C15.9246 14.9538 15.6677 14.98 15.2378 14.7893C15.2359 14.7885 15.2338 14.7882 15.2319 14.7874C15.2231 14.7837 15.2138 14.7812 15.2046 14.7786C15.1997 14.7772 15.1949 14.7748 15.1899 14.7737L15.1802 14.7718L15.1411 14.7679H15.1313L15.0923 14.7718C15.0904 14.7721 15.0882 14.7724 15.0864 14.7727C15.0799 14.7741 15.0733 14.7767 15.0669 14.7786C15.0578 14.7812 15.0483 14.7837 15.0395 14.7874C15.0381 14.788 15.0361 14.7887 15.0347 14.7893C14.6047 14.9799 14.3478 14.9539 14.1733 14.888C14.0791 14.8523 13.9945 14.7991 13.9077 14.7366C13.8329 14.6827 13.7237 14.5955 13.6323 14.5384C13.5153 14.4653 13.3608 14.5006 13.2876 14.6175C13.2148 14.7344 13.25 14.8891 13.3667 14.9622C13.4423 15.0095 13.5019 15.0609 13.6157 15.1429C13.7177 15.2163 13.8431 15.2967 13.9966 15.3548C14.2968 15.4683 14.6607 15.476 15.1362 15.2864C15.6117 15.476 15.9757 15.4682 16.2759 15.3548C16.4292 15.2968 16.5548 15.2162 16.6567 15.1429C16.7704 15.061 16.8303 15.0094 16.9058 14.9622C17.0225 14.889 17.0578 14.7344 16.9849 14.6175ZM15.7837 10.9681C15.422 10.6917 14.9209 10.689 14.5561 10.9612L13.4477 11.7893C12.8126 12.2644 12.94 13.2512 13.6753 13.5491L14.7856 13.9993C15.0334 14.0996 15.3112 14.0986 15.5581 13.9964L16.6401 13.5472C17.3651 13.2466 17.4922 12.2738 16.8686 11.7972L15.7837 10.9681Z" fill="currentColor"/></g></svg>
